<?xml version="1.0" encoding="utf-8"?>
<!-- Generated by Mocodo 4.3.2 -->
<svg width="1168" height="600" viewBox="0 0 1168 600" xmlns="http://www.w3.org/2000/svg">
<rect x="0" y="0" width="1168" height="600" fill="#FFFFFF" stroke="none" stroke-width="0"/>

<!-- Inheritance RESSOURCE_PARENT_#1 -->
<g>
	<line x1="614" y1="292" x2="776" y2="292" stroke="#000000" stroke-width="1"/>
	<polygon points="671 292 683 286 679 292 683 298" fill="#000000" stroke-width="0"/>
	<line x1="922" y1="409" x2="776" y2="292" stroke="#000000" stroke-width="1"/>
	<line x1="922" y1="157" x2="776" y2="292" stroke="#000000" stroke-width="1"/>
	<line x1="614" y1="409" x2="776" y2="292" stroke="#000000" stroke-width="1"/>
	<line x1="776" y1="409" x2="776" y2="292" stroke="#000000" stroke-width="1"/>
	<g>
		<polygon points="776 263.13 751 306.43 801 306.43" stroke="#000000" stroke-width="1.5" fill="#FFFFFF"/>
		<text x="764" y="298" fill="#000000" font-family="Copperplate" font-size="18">XT</text>
	</g>
</g>

<!-- Association COMPOSER -->
<g>
	<line x1="68" y1="39" x2="208" y2="39" stroke="#000000" stroke-width="1"/>
	<line x1="339" y1="39" x2="208" y2="39" stroke="#000000" stroke-width="1"/>
	<g>
		<path d="M246 10 a14 14 90 0 1 14 14 V38 h-104 V24 a14 14 90 0 1 14 -14" fill="#FFFFFF" stroke="#FFFFFF" stroke-width="0"/>
		<path d="M260 38 v16 a14 14 90 0 1 -14 14 H170 a14 14 90 0 1 -14 -14 V38 H104" fill="#FFFFFF" stroke="#FFFFFF" stroke-width="0"/>
		<rect x="156" y="10" width="104" height="58" fill="none" rx="14" stroke="#000000" stroke-width="1.5"/>
		<line x1="156" y1="38" x2="260" y2="38" stroke="#000000" stroke-width="1.5"/>
		<text x="163" y="31.3" fill="#000000" font-family="Copperplate" font-size="18">Composer</text>
	</g>
	<text x="132" y="55" fill="#000000" font-family="Futura" font-size="11">0,N</text>
	<text x="284" y="55" fill="#000000" font-family="Futura" font-size="11">1,N</text>
</g>

<!-- Association DETENIR -->
<g>
	<line x1="339" y1="157" x2="448" y2="39" stroke="#000000" stroke-width="1"/>
	<line x1="339" y1="39" x2="448" y2="39" stroke="#000000" stroke-width="1"/>
	<g>
		<path d="M477 10 a14 14 90 0 1 14 14 V38 h-86 V24 a14 14 90 0 1 14 -14" fill="#FFFFFF" stroke="#FFFFFF" stroke-width="0"/>
		<path d="M491 38 v16 a14 14 90 0 1 -14 14 H419 a14 14 90 0 1 -14 -14 V38 H86" fill="#FFFFFF" stroke="#FFFFFF" stroke-width="0"/>
		<rect x="405" y="10" width="86" height="58" fill="none" rx="14" stroke="#000000" stroke-width="1.5"/>
		<line x1="405" y1="38" x2="491" y2="38" stroke="#000000" stroke-width="1.5"/>
		<text x="412" y="31.3" fill="#000000" font-family="Copperplate" font-size="18">Detenir</text>
	</g>
	<text x="380.79" y="85" fill="#000000" font-family="Futura" font-size="11">1,N</text>
	<text x="375" y="55" fill="#000000" font-family="Futura" font-size="11">0,N</text>
</g>

<!-- Association AVOIR_3 -->
<g>
	<line x1="339" y1="157" x2="208" y2="157" stroke="#000000" stroke-width="1"/>
	<line x1="208" y1="292" x2="208" y2="157" stroke="#000000" stroke-width="1"/>
	<g>
		<path d="M229 128 a14 14 90 0 1 14 14 V156 h-70 V142 a14 14 90 0 1 14 -14" fill="#FFFFFF" stroke="#FFFFFF" stroke-width="0"/>
		<path d="M243 156 v16 a14 14 90 0 1 -14 14 H187 a14 14 90 0 1 -14 -14 V156 H70" fill="#FFFFFF" stroke="#FFFFFF" stroke-width="0"/>
		<rect x="173" y="128" width="70" height="58" fill="none" rx="14" stroke="#000000" stroke-width="1.5"/>
		<line x1="173" y1="156" x2="243" y2="156" stroke="#000000" stroke-width="1.5"/>
		<text x="180" y="149.3" fill="#000000" font-family="Copperplate" font-size="18">Avoir </text>
	</g>
	<text x="248" y="173" fill="#000000" font-family="Futura" font-size="11">0,N</text>
	<text x="213" y="237" fill="#000000" font-family="Futura" font-size="11">1,1</text>
</g>

<!-- Association EST_AUTORISE -->
<g>
	<line x1="339" y1="409" x2="448" y2="292" stroke="#000000" stroke-width="1"/>
	<line x1="614" y1="292" x2="448" y2="292" stroke="#000000" stroke-width="1"/>
	<g>
		<path d="M514 263 a14 14 90 0 1 14 14 V291 h-160 V277 a14 14 90 0 1 14 -14" fill="#FFFFFF" stroke="#FFFFFF" stroke-width="0"/>
		<path d="M528 291 v16 a14 14 90 0 1 -14 14 H382 a14 14 90 0 1 -14 -14 V291 H160" fill="#FFFFFF" stroke="#FFFFFF" stroke-width="0"/>
		<rect x="368" y="263" width="160" height="58" fill="none" rx="14" stroke="#000000" stroke-width="1.5"/>
		<line x1="368" y1="291" x2="528" y2="291" stroke="#000000" stroke-width="1.5"/>
		<text x="390" y="284.3" fill="#000000" font-family="Copperplate" font-size="18">Est autorisé</text>
		<text x="375" y="309.1" fill="#000000" font-family="Gill Sans" font-size="15">nature de l’autorisation</text>
	</g>
	<text x="357.12" y="363" fill="#000000" font-family="Futura" font-size="11">1,N</text>
	<text x="533" y="308" fill="#000000" font-family="Futura" font-size="11">0,N</text>
</g>

<!-- Association ASSIGNER -->
<g>
	<line x1="922" y1="409" x2="922" y2="292" stroke="#000000" stroke-width="1"/>
	<line x1="922" y1="157" x2="922" y2="292" stroke="#000000" stroke-width="1"/>
	<g>
		<path d="M963 263 a14 14 90 0 1 14 14 V291 h-110 V277 a14 14 90 0 1 14 -14" fill="#FFFFFF" stroke="#FFFFFF" stroke-width="0"/>
		<path d="M977 291 v16 a14 14 90 0 1 -14 14 H881 a14 14 90 0 1 -14 -14 V291 H110" fill="#FFFFFF" stroke="#FFFFFF" stroke-width="0"/>
		<rect x="867" y="263" width="110" height="58" fill="none" rx="14" stroke="#000000" stroke-width="1.5"/>
		<line x1="867" y1="291" x2="977" y2="291" stroke="#000000" stroke-width="1.5"/>
		<text x="875" y="284.3" fill="#000000" font-family="Copperplate" font-size="18">ASSIGNER</text>
	</g>
	<text x="927" y="337" fill="#000000" font-family="Futura" font-size="11">0,N</text>
	<text x="898" y="254" fill="#000000" font-family="Futura" font-size="11">0,N</text>
</g>

<!-- Association AVOIR_2 -->
<g>
	<line x1="339" y1="409" x2="208" y2="409" stroke="#000000" stroke-width="1"/>
	<line x1="208" y1="292" x2="208" y2="409" stroke="#000000" stroke-width="1"/>
	<g>
		<path d="M229 380 a14 14 90 0 1 14 14 V408 h-70 V394 a14 14 90 0 1 14 -14" fill="#FFFFFF" stroke="#FFFFFF" stroke-width="0"/>
		<path d="M243 408 v16 a14 14 90 0 1 -14 14 H187 a14 14 90 0 1 -14 -14 V408 H70" fill="#FFFFFF" stroke="#FFFFFF" stroke-width="0"/>
		<rect x="173" y="380" width="70" height="58" fill="none" rx="14" stroke="#000000" stroke-width="1.5"/>
		<line x1="173" y1="408" x2="243" y2="408" stroke="#000000" stroke-width="1.5"/>
		<text x="180" y="401.3" fill="#000000" font-family="Copperplate" font-size="18">Avoir </text>
	</g>
	<text x="256" y="425" fill="#000000" font-family="Futura" font-size="11">0,N</text>
	<text x="213" y="355" fill="#000000" font-family="Futura" font-size="11">1,1</text>
</g>

<!-- Association EMPLOYER -->
<g>
	<line x1="922" y1="544" x2="1072" y2="409" stroke="#000000" stroke-width="1"/>
	<line x1="922" y1="157" x2="1072" y2="409" stroke="#000000" stroke-width="1"/>
	<g>
		<path d="M1116 380 a14 14 90 0 1 14 14 V408 h-116 V394 a14 14 90 0 1 14 -14" fill="#FFFFFF" stroke="#FFFFFF" stroke-width="0"/>
		<path d="M1130 408 v16 a14 14 90 0 1 -14 14 H1028 a14 14 90 0 1 -14 -14 V408 H116" fill="#FFFFFF" stroke="#FFFFFF" stroke-width="0"/>
		<rect x="1014" y="380" width="116" height="58" fill="none" rx="14" stroke="#000000" stroke-width="1.5"/>
		<line x1="1014" y1="408" x2="1130" y2="408" stroke="#000000" stroke-width="1.5"/>
		<text x="1022" y="401.3" fill="#000000" font-family="Copperplate" font-size="18">EMPLOYER</text>
		<text x="1021" y="426.1" fill="#000000" font-family="Gill Sans" font-size="15">poste</text>
	</g>
	<text x="956.77" y="489" fill="#000000" font-family="Futura" font-size="11">0,N</text>
	<text x="950.83" y="254" fill="#000000" font-family="Futura" font-size="11">0,N</text>
</g>

<!-- Association APPARTENIR -->
<g>
	<line x1="922" y1="544" x2="614" y2="544" stroke="#000000" stroke-width="1"/>
	<line x1="339" y1="409" x2="614" y2="544" stroke="#000000" stroke-width="1"/>
	<g>
		<path d="M658 515 a14 14 90 0 1 14 14 V543 h-116 V529 a14 14 90 0 1 14 -14" fill="#FFFFFF" stroke="#FFFFFF" stroke-width="0"/>
		<path d="M672 543 v16 a14 14 90 0 1 -14 14 H570 a14 14 90 0 1 -14 -14 V543 H116" fill="#FFFFFF" stroke="#FFFFFF" stroke-width="0"/>
		<rect x="556" y="515" width="116" height="58" fill="none" rx="14" stroke="#000000" stroke-width="1.5"/>
		<line x1="556" y1="543" x2="672" y2="543" stroke="#000000" stroke-width="1.5"/>
		<text x="563" y="536.3" fill="#000000" font-family="Copperplate" font-size="18">Appartenir</text>
	</g>
	<text x="839" y="560" fill="#000000" font-family="Futura" font-size="11">0,N</text>
	<text x="403" y="433.8" fill="#000000" font-family="Futura" font-size="11">0,1</text>
</g>

<!-- Entity PERMISSION -->
<g>
	<g>
		<rect x="9" y="9" width="118" height="30" fill="#FFFFFF" stroke="none" stroke-width="0" opacity="1"/>
		<rect x="9" y="39" width="118" height="30" fill="#FFFFFF" stroke="none" stroke-width="0" opacity="1"/>
		<rect x="9" y="9" width="118" height="60" fill="none" stroke="#000000" stroke-width="1.5" opacity="1"/>
		<line x1="9" y1="39" x2="127" y2="39" stroke="#000000" stroke-width="1.5"/>
	</g>
	<text x="17" y="30.3" fill="#000000" font-family="Copperplate" font-size="18">Permission</text>
	<text x="17" y="56.1" fill="#000000" font-family="Gill Sans" font-size="15">name</text>
	<line x1="17" y1="59" x2="51" y2="59" stroke="#000000" stroke-width="1"/>
</g>

<!-- Entity ROLE -->
<g>
	<g>
		<rect x="308" y="9" width="62" height="30" fill="#FFFFFF" stroke="none" stroke-width="0" opacity="1"/>
		<rect x="308" y="39" width="62" height="30" fill="#FFFFFF" stroke="none" stroke-width="0" opacity="1"/>
		<rect x="308" y="9" width="62" height="60" fill="none" stroke="#000000" stroke-width="1.5" opacity="1"/>
		<line x1="308" y1="39" x2="370" y2="39" stroke="#000000" stroke-width="1.5"/>
	</g>
	<text x="317" y="30.3" fill="#000000" font-family="Copperplate" font-size="18">Role</text>
	<text x="316" y="56.1" fill="#000000" font-family="Gill Sans" font-size="15">name</text>
	<line x1="316" y1="59" x2="350" y2="59" stroke="#000000" stroke-width="1"/>
</g>

<!-- Entity UTILISATEURS -->
<g>
	<g>
		<rect x="272" y="93" width="134" height="30" fill="#FFFFFF" stroke="none" stroke-width="0" opacity="1"/>
		<rect x="272" y="123" width="134" height="98" fill="#FFFFFF" stroke="none" stroke-width="0" opacity="1"/>
		<rect x="272" y="93" width="134" height="128" fill="none" stroke="#000000" stroke-width="1.5" opacity="1"/>
		<line x1="272" y1="123" x2="406" y2="123" stroke="#000000" stroke-width="1.5"/>
	</g>
	<text x="281" y="114.3" fill="#000000" font-family="Copperplate" font-size="18">Utilisateurs</text>
	<text x="280" y="140.1" fill="#000000" font-family="Gill Sans" font-size="15">email</text>
	<line x1="280" y1="143" x2="313" y2="143" stroke="#000000" stroke-width="1"/>
	<text x="280" y="157.1" fill="#000000" font-family="Gill Sans" font-size="15">mot de passe</text>
	<text x="280" y="174.1" fill="#000000" font-family="Gill Sans" font-size="15">username</text>
	<text x="280" y="191" fill="#000000" font-family="Gill Sans" font-size="15">avatar url</text>
	<text x="280" y="208" fill="#000000" font-family="Gill Sans" font-size="15">description</text>
</g>

<!-- Entity PERSONNE -->
<g>
	<g>
		<rect x="859" y="76" width="126" height="30" fill="#FFFFFF" stroke="none" stroke-width="0" opacity="1"/>
		<rect x="859" y="106" width="126" height="132" fill="#FFFFFF" stroke="none" stroke-width="0" opacity="1"/>
		<rect x="859" y="76" width="126" height="162" fill="none" stroke="#000000" stroke-width="1.5" opacity="1"/>
		<line x1="859" y1="106" x2="985" y2="106" stroke="#000000" stroke-width="1.5"/>
	</g>
	<text x="878" y="97.3" fill="#000000" font-family="Copperplate" font-size="18">Personne</text>
	<text x="867" y="123" fill="#000000" font-family="Gill Sans" font-size="15">email</text>
	<text x="867" y="140.1" fill="#000000" font-family="Gill Sans" font-size="15">nom de famille</text>
	<text x="867" y="157.1" fill="#000000" font-family="Gill Sans" font-size="15">prénom</text>
	<text x="867" y="174.1" fill="#000000" font-family="Gill Sans" font-size="15">date de naissance</text>
	<text x="867" y="191" fill="#000000" font-family="Gill Sans" font-size="15">téléphone</text>
	<text x="867" y="208" fill="#000000" font-family="Gill Sans" font-size="15">code postal</text>
	<text x="867" y="225" fill="#000000" font-family="Gill Sans" font-size="15">métier</text>
</g>

<!-- Entity REFRESH_TOKENS -->
<g>
	<g>
		<rect x="127" y="245" width="162" height="30" fill="#FFFFFF" stroke="none" stroke-width="0" opacity="1"/>
		<rect x="127" y="275" width="162" height="64" fill="#FFFFFF" stroke="none" stroke-width="0" opacity="1"/>
		<rect x="127" y="245" width="162" height="94" fill="none" stroke="#000000" stroke-width="1.5" opacity="1"/>
		<line x1="127" y1="275" x2="289" y2="275" stroke="#000000" stroke-width="1.5"/>
	</g>
	<text x="135" y="266.3" fill="#000000" font-family="Copperplate" font-size="18">Refresh Tokens</text>
	<text x="135" y="292.1" fill="#000000" font-family="Gill Sans" font-size="15">token</text>
	<line x1="135" y1="295" x2="172" y2="295" stroke="#000000" stroke-width="1"/>
	<text x="135" y="309.1" fill="#000000" font-family="Gill Sans" font-size="15">date d’expiration</text>
	<text x="135" y="326" fill="#000000" font-family="Gill Sans" font-size="15">date de révocation</text>
</g>

<!-- Entity RESSOURCE -->
<g>
	<g>
		<rect x="557" y="245" width="114" height="30" fill="#FFFFFF" stroke="none" stroke-width="0" opacity="1"/>
		<rect x="557" y="275" width="114" height="64" fill="#FFFFFF" stroke="none" stroke-width="0" opacity="1"/>
		<rect x="557" y="245" width="114" height="94" fill="none" stroke="#000000" stroke-width="1.5" opacity="1"/>
		<line x1="557" y1="275" x2="671" y2="275" stroke="#000000" stroke-width="1.5"/>
	</g>
	<text x="565" y="266.3" fill="#000000" font-family="Copperplate" font-size="18">Ressource</text>
	<text x="565" y="292.1" fill="#000000" font-family="Gill Sans" font-size="15">nom</text>
	<line x1="565" y1="295" x2="594" y2="295" stroke="#000000" stroke-width="1"/>
	<text x="565" y="309.1" fill="#000000" font-family="Gill Sans" font-size="15">type</text>
	<line x1="565" y1="312" x2="593" y2="312" stroke="#000000" stroke-width="1"/>
</g>

<!-- Entity CLIENT -->
<g>
	<g>
		<rect x="280" y="371" width="118" height="30" fill="#FFFFFF" stroke="none" stroke-width="0" opacity="1"/>
		<rect x="280" y="401" width="118" height="46" fill="#FFFFFF" stroke="none" stroke-width="0" opacity="1"/>
		<rect x="280" y="371" width="118" height="76" fill="none" stroke="#000000" stroke-width="1.5" opacity="1"/>
		<line x1="280" y1="401" x2="398" y2="401" stroke="#000000" stroke-width="1.5"/>
	</g>
	<text x="309" y="392.3" fill="#000000" font-family="Copperplate" font-size="18">Client</text>
	<text x="288" y="418.1" fill="#000000" font-family="Gill Sans" font-size="15">nom</text>
	<line x1="288" y1="421" x2="317" y2="421" stroke="#000000" stroke-width="1"/>
	<text x="288" y="435.1" fill="#000000" font-family="Gill Sans" font-size="15">URL redirection</text>
	<line x1="288" y1="438" x2="390" y2="438" stroke="#000000" stroke-width="1"/>
</g>

<!-- Entity BASE_DE_DONNEE -->
<g>
	<g>
		<rect x="535" y="371" width="158" height="30" fill="#FFFFFF" stroke="none" stroke-width="0" opacity="1"/>
		<rect x="535" y="401" width="158" height="46" fill="#FFFFFF" stroke="none" stroke-width="0" opacity="1"/>
		<rect x="535" y="371" width="158" height="76" fill="none" stroke="#000000" stroke-width="1.5" opacity="1"/>
		<line x1="535" y1="401" x2="693" y2="401" stroke="#000000" stroke-width="1.5"/>
	</g>
	<text x="543" y="392.3" fill="#000000" font-family="Copperplate" font-size="18">Base de donnée</text>
	<text x="543" y="418.1" fill="#000000" font-family="Gill Sans" font-size="15">nom</text>
	<text x="543" y="435.1" fill="#000000" font-family="Gill Sans" font-size="15">id client</text>
</g>

<!-- Entity DOCUMENT -->
<g>
	<g>
		<rect x="722" y="371" width="108" height="30" fill="#FFFFFF" stroke="none" stroke-width="0" opacity="1"/>
		<rect x="722" y="401" width="108" height="46" fill="#FFFFFF" stroke="none" stroke-width="0" opacity="1"/>
		<rect x="722" y="371" width="108" height="76" fill="none" stroke="#000000" stroke-width="1.5" opacity="1"/>
		<line x1="722" y1="401" x2="830" y2="401" stroke="#000000" stroke-width="1.5"/>
	</g>
	<text x="731" y="392.3" fill="#000000" font-family="Copperplate" font-size="18">Document</text>
	<text x="730" y="418.1" fill="#000000" font-family="Gill Sans" font-size="15">titre</text>
	<text x="730" y="435.1" fill="#000000" font-family="Gill Sans" font-size="15">contenu</text>
</g>

<!-- Entity TACHE -->
<g>
	<g>
		<rect x="859" y="345" width="126" height="30" fill="#FFFFFF" stroke="none" stroke-width="0" opacity="1"/>
		<rect x="859" y="375" width="126" height="98" fill="#FFFFFF" stroke="none" stroke-width="0" opacity="1"/>
		<rect x="859" y="345" width="126" height="128" fill="none" stroke="#000000" stroke-width="1.5" opacity="1"/>
		<line x1="859" y1="375" x2="985" y2="375" stroke="#000000" stroke-width="1.5"/>
	</g>
	<text x="895" y="366.3" fill="#000000" font-family="Copperplate" font-size="18">Tâche</text>
	<text x="867" y="392.1" fill="#000000" font-family="Gill Sans" font-size="15">contenu</text>
	<text x="867" y="409.1" fill="#000000" font-family="Gill Sans" font-size="15">date limite</text>
	<text x="867" y="426.1" fill="#000000" font-family="Gill Sans" font-size="15">date d’assignation</text>
	<text x="867" y="443" fill="#000000" font-family="Gill Sans" font-size="15">priorité</text>
	<text x="867" y="460" fill="#000000" font-family="Gill Sans" font-size="15">progrès</text>
</g>

<!-- Entity ENTREPRISE -->
<g>
	<g>
		<rect x="863" y="497" width="118" height="30" fill="#FFFFFF" stroke="none" stroke-width="0" opacity="1"/>
		<rect x="863" y="527" width="118" height="64" fill="#FFFFFF" stroke="none" stroke-width="0" opacity="1"/>
		<rect x="863" y="497" width="118" height="94" fill="none" stroke="#000000" stroke-width="1.5" opacity="1"/>
		<line x1="863" y1="527" x2="981" y2="527" stroke="#000000" stroke-width="1.5"/>
	</g>
	<text x="871" y="518.3" fill="#000000" font-family="Copperplate" font-size="18">Entreprise</text>
	<text x="871" y="544.1" fill="#000000" font-family="Gill Sans" font-size="15">siret</text>
	<line x1="871" y1="547" x2="900" y2="547" stroke="#000000" stroke-width="1"/>
	<text x="871" y="561.1" fill="#000000" font-family="Gill Sans" font-size="15">nom</text>
	<text x="871" y="578" fill="#000000" font-family="Gill Sans" font-size="15">code postal</text>
</g>
</svg>