<?xml version="1.0" encoding="utf-8"?>
<!-- Generated by Mocodo 4.3.2 -->
<svg width="987" height="532" viewBox="0 0 987 532" xmlns="http://www.w3.org/2000/svg">
<rect x="0" y="0" width="987" height="532" fill="#FFFFFF" stroke="none" stroke-width="0"/>

<!-- Inheritance PERSONNE_PARENT_#1 -->
<g>
	<line x1="769" y1="90" x2="326" y2="90" stroke="#000000" stroke-width="1"/>
	<polygon points="706 90 694 96 698 90 694 84" fill="#000000" stroke-width="0"/>
	<line x1="204" y1="90" x2="326" y2="90" stroke="#000000" stroke-width="1"/>
	<g>
		<polygon points="326 61.13 301 104.43 351 104.43" stroke="#000000" stroke-width="1.5" fill="#FFFFFF"/>
		<text x="326" y="96" fill="#000000" font-family="Copperplate" font-size="18"></text>
	</g>
</g>

<!-- Inheritance RESOURCE_PARENT_#2 -->
<g>
	<line x1="488" y1="224" x2="622" y2="224" stroke="#000000" stroke-width="1"/>
	<polygon points="540 224 552 218 548 224 552 230" fill="#000000" stroke-width="0"/>
	<line x1="769" y1="341" x2="622" y2="224" stroke="#000000" stroke-width="1"/>
	<line x1="769" y1="90" x2="622" y2="224" stroke="#000000" stroke-width="1"/>
	<line x1="488" y1="341" x2="622" y2="224" stroke="#000000" stroke-width="1"/>
	<line x1="622" y1="341" x2="622" y2="224" stroke="#000000" stroke-width="1"/>
	<g>
		<polygon points="622 195.13 597 238.43 647 238.43" stroke="#000000" stroke-width="1.5" fill="#FFFFFF"/>
		<text x="610" y="230" fill="#000000" font-family="Copperplate" font-size="18">XT</text>
	</g>
</g>

<!-- Association A_3 -->
<g>
	<line x1="204" y1="90" x2="90" y2="90" stroke="#000000" stroke-width="1"/>
	<line x1="90" y1="224" x2="90" y2="90" stroke="#000000" stroke-width="1"/>
	<g>
		<path d="M93 61 a14 14 90 0 1 14 14 V89 h-34 V75 a14 14 90 0 1 14 -14" fill="#FFFFFF" stroke="#FFFFFF" stroke-width="0"/>
		<path d="M107 89 v16 a14 14 90 0 1 -14 14 H87 a14 14 90 0 1 -14 -14 V89 H34" fill="#FFFFFF" stroke="#FFFFFF" stroke-width="0"/>
		<rect x="73" y="61" width="34" height="58" fill="none" rx="14" stroke="#000000" stroke-width="1.5"/>
		<line x1="73" y1="89" x2="107" y2="89" stroke="#000000" stroke-width="1.5"/>
		<text x="81" y="82.3" fill="#000000" font-family="Copperplate" font-size="18">A </text>
	</g>
	<text x="114" y="106" fill="#000000" font-family="Futura" font-size="11">0,1</text>
	<text x="95" y="169" fill="#000000" font-family="Futura" font-size="11">1,1</text>
</g>

<!-- Association EST_AUTORISE -->
<g>
	<line x1="204" y1="90" x2="326" y2="224" stroke="#000000" stroke-width="1"/>
	<line x1="204" y1="341" x2="326" y2="224" stroke="#000000" stroke-width="1"/>
	<line x1="488" y1="224" x2="326" y2="224" stroke="#000000" stroke-width="1"/>
	<g>
		<path d="M392 195 a14 14 90 0 1 14 14 V223 h-160 V209 a14 14 90 0 1 14 -14" fill="#FFFFFF" stroke="#FFFFFF" stroke-width="0"/>
		<path d="M406 223 v16 a14 14 90 0 1 -14 14 H260 a14 14 90 0 1 -14 -14 V223 H160" fill="#FFFFFF" stroke="#FFFFFF" stroke-width="0"/>
		<rect x="246" y="195" width="160" height="58" fill="none" rx="14" stroke="#000000" stroke-width="1.5"/>
		<line x1="246" y1="223" x2="406" y2="223" stroke="#000000" stroke-width="1.5"/>
		<text x="268" y="216.3" fill="#000000" font-family="Copperplate" font-size="18">Est autorisé</text>
		<text x="253" y="241.1" fill="#000000" font-family="Gill Sans" font-size="15">nature de l’autorisation</text>
	</g>
	<text x="220.2" y="144" fill="#000000" font-family="Futura" font-size="11">N,N</text>
	<text x="226.49" y="295" fill="#000000" font-family="Futura" font-size="11">1,N</text>
	<text x="412" y="240" fill="#000000" font-family="Futura" font-size="11">0,N</text>
</g>

<!-- Association ASSIGNER -->
<g>
	<line x1="769" y1="341" x2="769" y2="224" stroke="#000000" stroke-width="1"/>
	<line x1="769" y1="90" x2="769" y2="224" stroke="#000000" stroke-width="1"/>
	<g>
		<path d="M810 195 a14 14 90 0 1 14 14 V223 h-110 V209 a14 14 90 0 1 14 -14" fill="#FFFFFF" stroke="#FFFFFF" stroke-width="0"/>
		<path d="M824 223 v16 a14 14 90 0 1 -14 14 H728 a14 14 90 0 1 -14 -14 V223 H110" fill="#FFFFFF" stroke="#FFFFFF" stroke-width="0"/>
		<rect x="714" y="195" width="110" height="58" fill="none" rx="14" stroke="#000000" stroke-width="1.5"/>
		<line x1="714" y1="223" x2="824" y2="223" stroke="#000000" stroke-width="1.5"/>
		<text x="722" y="216.3" fill="#000000" font-family="Copperplate" font-size="18">ASSIGNER</text>
	</g>
	<text x="774" y="269" fill="#000000" font-family="Futura" font-size="11">0,N</text>
	<text x="745" y="187" fill="#000000" font-family="Futura" font-size="11">0,N</text>
</g>

<!-- Association A_2 -->
<g>
	<line x1="204" y1="341" x2="90" y2="341" stroke="#000000" stroke-width="1"/>
	<line x1="90" y1="224" x2="90" y2="341" stroke="#000000" stroke-width="1"/>
	<g>
		<path d="M93 312 a14 14 90 0 1 14 14 V340 h-34 V326 a14 14 90 0 1 14 -14" fill="#FFFFFF" stroke="#FFFFFF" stroke-width="0"/>
		<path d="M107 340 v16 a14 14 90 0 1 -14 14 H87 a14 14 90 0 1 -14 -14 V340 H34" fill="#FFFFFF" stroke="#FFFFFF" stroke-width="0"/>
		<rect x="73" y="312" width="34" height="58" fill="none" rx="14" stroke="#000000" stroke-width="1.5"/>
		<line x1="73" y1="340" x2="107" y2="340" stroke="#000000" stroke-width="1.5"/>
		<text x="81" y="333.3" fill="#000000" font-family="Copperplate" font-size="18">A </text>
	</g>
	<text x="135" y="357" fill="#000000" font-family="Futura" font-size="11">0,1</text>
	<text x="95" y="287" fill="#000000" font-family="Futura" font-size="11">1,1</text>
</g>

<!-- Association EMPLOYER -->
<g>
	<line x1="769" y1="476" x2="920" y2="341" stroke="#000000" stroke-width="1"/>
	<line x1="769" y1="90" x2="920" y2="341" stroke="#000000" stroke-width="1"/>
	<g>
		<path d="M964 312 a14 14 90 0 1 14 14 V340 h-116 V326 a14 14 90 0 1 14 -14" fill="#FFFFFF" stroke="#FFFFFF" stroke-width="0"/>
		<path d="M978 340 v16 a14 14 90 0 1 -14 14 H876 a14 14 90 0 1 -14 -14 V340 H116" fill="#FFFFFF" stroke="#FFFFFF" stroke-width="0"/>
		<rect x="862" y="312" width="116" height="58" fill="none" rx="14" stroke="#000000" stroke-width="1.5"/>
		<line x1="862" y1="340" x2="978" y2="340" stroke="#000000" stroke-width="1.5"/>
		<text x="870" y="333.3" fill="#000000" font-family="Copperplate" font-size="18">EMPLOYER</text>
		<text x="869" y="358.1" fill="#000000" font-family="Gill Sans" font-size="15">poste</text>
	</g>
	<text x="804.08" y="421" fill="#000000" font-family="Futura" font-size="11">0,N</text>
	<text x="798.39" y="187" fill="#000000" font-family="Futura" font-size="11">0,N</text>
</g>

<!-- Association APPARTENIR -->
<g>
	<line x1="769" y1="476" x2="488" y2="476" stroke="#000000" stroke-width="1"/>
	<line x1="204" y1="341" x2="488" y2="476" stroke="#000000" stroke-width="1"/>
	<g>
		<path d="M532 447 a14 14 90 0 1 14 14 V475 h-116 V461 a14 14 90 0 1 14 -14" fill="#FFFFFF" stroke="#FFFFFF" stroke-width="0"/>
		<path d="M546 475 v16 a14 14 90 0 1 -14 14 H444 a14 14 90 0 1 -14 -14 V475 H116" fill="#FFFFFF" stroke="#FFFFFF" stroke-width="0"/>
		<rect x="430" y="447" width="116" height="58" fill="none" rx="14" stroke="#000000" stroke-width="1.5"/>
		<line x1="430" y1="475" x2="546" y2="475" stroke="#000000" stroke-width="1.5"/>
		<text x="437" y="468.3" fill="#000000" font-family="Copperplate" font-size="18">Appartenir</text>
	</g>
	<text x="687" y="492" fill="#000000" font-family="Futura" font-size="11">0,1</text>
	<text x="255" y="358.59" fill="#000000" font-family="Futura" font-size="11">O,N</text>
</g>

<!-- Entity UTILISATEURS -->
<g>
	<g>
		<rect x="137" y="52" width="134" height="30" fill="#FFFFFF" stroke="none" stroke-width="0" opacity="1"/>
		<rect x="137" y="82" width="134" height="46" fill="#FFFFFF" stroke="none" stroke-width="0" opacity="1"/>
		<rect x="137" y="52" width="134" height="76" fill="none" stroke="#000000" stroke-width="1.5" opacity="1"/>
		<line x1="137" y1="82" x2="271" y2="82" stroke="#000000" stroke-width="1.5"/>
	</g>
	<text x="146" y="73.3" fill="#000000" font-family="Copperplate" font-size="18">Utilisateurs</text>
	<text x="145" y="99.1" fill="#000000" font-family="Gill Sans" font-size="15">email</text>
	<text x="145" y="116.1" fill="#000000" font-family="Gill Sans" font-size="15">mot de passe</text>
</g>

<!-- Entity PERSONNE -->
<g>
	<g>
		<rect x="706" y="9" width="126" height="30" fill="#FFFFFF" stroke="none" stroke-width="0" opacity="1"/>
		<rect x="706" y="39" width="126" height="132" fill="#FFFFFF" stroke="none" stroke-width="0" opacity="1"/>
		<rect x="706" y="9" width="126" height="162" fill="none" stroke="#000000" stroke-width="1.5" opacity="1"/>
		<line x1="706" y1="39" x2="832" y2="39" stroke="#000000" stroke-width="1.5"/>
	</g>
	<text x="725" y="30.3" fill="#000000" font-family="Copperplate" font-size="18">Personne</text>
	<text x="714" y="56" fill="#000000" font-family="Gill Sans" font-size="15">email</text>
	<text x="714" y="73.1" fill="#000000" font-family="Gill Sans" font-size="15">nom de famille</text>
	<text x="714" y="90.1" fill="#000000" font-family="Gill Sans" font-size="15">prénom</text>
	<text x="714" y="107.1" fill="#000000" font-family="Gill Sans" font-size="15">date de naissance</text>
	<text x="714" y="124" fill="#000000" font-family="Gill Sans" font-size="15">téléphone</text>
	<text x="714" y="141" fill="#000000" font-family="Gill Sans" font-size="15">code postal</text>
	<text x="714" y="158" fill="#000000" font-family="Gill Sans" font-size="15">métier</text>
</g>

<!-- Entity REFRESH_TOKENS -->
<g>
	<g>
		<rect x="9" y="177" width="162" height="30" fill="#FFFFFF" stroke="none" stroke-width="0" opacity="1"/>
		<rect x="9" y="207" width="162" height="64" fill="#FFFFFF" stroke="none" stroke-width="0" opacity="1"/>
		<rect x="9" y="177" width="162" height="94" fill="none" stroke="#000000" stroke-width="1.5" opacity="1"/>
		<line x1="9" y1="207" x2="171" y2="207" stroke="#000000" stroke-width="1.5"/>
	</g>
	<text x="17" y="198.3" fill="#000000" font-family="Copperplate" font-size="18">Refresh Tokens</text>
	<text x="17" y="224.1" fill="#000000" font-family="Gill Sans" font-size="15">token</text>
	<line x1="17" y1="227" x2="54" y2="227" stroke="#000000" stroke-width="1"/>
	<text x="17" y="241.1" fill="#000000" font-family="Gill Sans" font-size="15">date d’expiration</text>
	<text x="17" y="258" fill="#000000" font-family="Gill Sans" font-size="15">date de révocation</text>
</g>

<!-- Entity RESOURCE -->
<g>
	<g>
		<rect x="436" y="177" width="104" height="30" fill="#FFFFFF" stroke="none" stroke-width="0" opacity="1"/>
		<rect x="436" y="207" width="104" height="64" fill="#FFFFFF" stroke="none" stroke-width="0" opacity="1"/>
		<rect x="436" y="177" width="104" height="94" fill="none" stroke="#000000" stroke-width="1.5" opacity="1"/>
		<line x1="436" y1="207" x2="540" y2="207" stroke="#000000" stroke-width="1.5"/>
	</g>
	<text x="444" y="198.3" fill="#000000" font-family="Copperplate" font-size="18">Resource</text>
	<text x="444" y="224.1" fill="#000000" font-family="Gill Sans" font-size="15">nom</text>
	<line x1="444" y1="227" x2="473" y2="227" stroke="#000000" stroke-width="1"/>
	<text x="444" y="241.1" fill="#000000" font-family="Gill Sans" font-size="15">type</text>
</g>

<!-- Entity CLIENT -->
<g>
	<g>
		<rect x="158" y="303" width="92" height="30" fill="#FFFFFF" stroke="none" stroke-width="0" opacity="1"/>
		<rect x="158" y="333" width="92" height="46" fill="#FFFFFF" stroke="none" stroke-width="0" opacity="1"/>
		<rect x="158" y="303" width="92" height="76" fill="none" stroke="#000000" stroke-width="1.5" opacity="1"/>
		<line x1="158" y1="333" x2="250" y2="333" stroke="#000000" stroke-width="1.5"/>
	</g>
	<text x="174" y="324.3" fill="#000000" font-family="Copperplate" font-size="18">Client</text>
	<text x="166" y="350.1" fill="#000000" font-family="Gill Sans" font-size="15">nom</text>
	<line x1="166" y1="353" x2="195" y2="353" stroke="#000000" stroke-width="1"/>
	<text x="166" y="367.1" fill="#000000" font-family="Gill Sans" font-size="15">redirect_uri</text>
</g>

<!-- Entity DATABASE -->
<g>
	<g>
		<rect x="438" y="303" width="100" height="30" fill="#FFFFFF" stroke="none" stroke-width="0" opacity="1"/>
		<rect x="438" y="333" width="100" height="46" fill="#FFFFFF" stroke="none" stroke-width="0" opacity="1"/>
		<rect x="438" y="303" width="100" height="76" fill="none" stroke="#000000" stroke-width="1.5" opacity="1"/>
		<line x1="438" y1="333" x2="538" y2="333" stroke="#000000" stroke-width="1.5"/>
	</g>
	<text x="446" y="324.3" fill="#000000" font-family="Copperplate" font-size="18">Database</text>
	<text x="446" y="350.1" fill="#000000" font-family="Gill Sans" font-size="15">nom</text>
	<text x="446" y="367.1" fill="#000000" font-family="Gill Sans" font-size="15">id client</text>
</g>

<!-- Entity DOCUMENT -->
<g>
	<g>
		<rect x="568" y="303" width="108" height="30" fill="#FFFFFF" stroke="none" stroke-width="0" opacity="1"/>
		<rect x="568" y="333" width="108" height="46" fill="#FFFFFF" stroke="none" stroke-width="0" opacity="1"/>
		<rect x="568" y="303" width="108" height="76" fill="none" stroke="#000000" stroke-width="1.5" opacity="1"/>
		<line x1="568" y1="333" x2="676" y2="333" stroke="#000000" stroke-width="1.5"/>
	</g>
	<text x="577" y="324.3" fill="#000000" font-family="Copperplate" font-size="18">Document</text>
	<text x="576" y="350.1" fill="#000000" font-family="Gill Sans" font-size="15">titre</text>
	<text x="576" y="367.1" fill="#000000" font-family="Gill Sans" font-size="15">contenu</text>
</g>

<!-- Entity TACHE -->
<g>
	<g>
		<rect x="706" y="277" width="126" height="30" fill="#FFFFFF" stroke="none" stroke-width="0" opacity="1"/>
		<rect x="706" y="307" width="126" height="98" fill="#FFFFFF" stroke="none" stroke-width="0" opacity="1"/>
		<rect x="706" y="277" width="126" height="128" fill="none" stroke="#000000" stroke-width="1.5" opacity="1"/>
		<line x1="706" y1="307" x2="832" y2="307" stroke="#000000" stroke-width="1.5"/>
	</g>
	<text x="742" y="298.3" fill="#000000" font-family="Copperplate" font-size="18">Tâche</text>
	<text x="714" y="324.1" fill="#000000" font-family="Gill Sans" font-size="15">contenu</text>
	<text x="714" y="341.1" fill="#000000" font-family="Gill Sans" font-size="15">date limite</text>
	<text x="714" y="358.1" fill="#000000" font-family="Gill Sans" font-size="15">date d’assignation</text>
	<text x="714" y="375" fill="#000000" font-family="Gill Sans" font-size="15">priorité</text>
	<text x="714" y="392" fill="#000000" font-family="Gill Sans" font-size="15">progrès</text>
</g>

<!-- Entity ENTREPRISE -->
<g>
	<g>
		<rect x="710" y="429" width="118" height="30" fill="#FFFFFF" stroke="none" stroke-width="0" opacity="1"/>
		<rect x="710" y="459" width="118" height="64" fill="#FFFFFF" stroke="none" stroke-width="0" opacity="1"/>
		<rect x="710" y="429" width="118" height="94" fill="none" stroke="#000000" stroke-width="1.5" opacity="1"/>
		<line x1="710" y1="459" x2="828" y2="459" stroke="#000000" stroke-width="1.5"/>
	</g>
	<text x="718" y="450.3" fill="#000000" font-family="Copperplate" font-size="18">Entreprise</text>
	<text x="718" y="476.1" fill="#000000" font-family="Gill Sans" font-size="15">nom</text>
	<line x1="718" y1="479" x2="747" y2="479" stroke="#000000" stroke-width="1"/>
	<text x="718" y="493.1" fill="#000000" font-family="Gill Sans" font-size="15">code postal</text>
	<text x="718" y="510" fill="#000000" font-family="Gill Sans" font-size="15">siret</text>
</g>
</svg>