<?xml version="1.0" encoding="utf-8"?>
<!-- Generated by Mocodo 4.3.2 -->
<svg width="898" height="557" viewBox="0 0 898 557" xmlns="http://www.w3.org/2000/svg">
<rect x="0" y="0" width="898" height="557" fill="#FFFFFF" stroke="none" stroke-width="0"/>

<!-- Inheritance PERSONNE_PARENT_#1 -->
<g>
	<line x1="702" y1="90" x2="296" y2="90" stroke="#000000" stroke-width="1"/>
	<polygon points="639 90 627 96 631 90 627 84" fill="#000000" stroke-width="0"/>
	<line x1="191" y1="90" x2="296" y2="90" stroke="#000000" stroke-width="1"/>
	<g>
		<polygon points="296 61.13 271 104.43 321 104.43" stroke="#000000" stroke-width="1.5" fill="#FFFFFF"/>
		<text x="296" y="96" fill="#000000" font-family="Copperplate" font-size="18"></text>
	</g>
</g>

<!-- Inheritance RESOURCE_PARENT_#2 -->
<g>
	<line x1="443" y1="224" x2="577" y2="224" stroke="#000000" stroke-width="1"/>
	<polygon points="495 224 507 218 503 224 507 230" fill="#000000" stroke-width="0"/>
	<line x1="702" y1="350" x2="577" y2="224" stroke="#000000" stroke-width="1"/>
	<line x1="702" y1="90" x2="577" y2="224" stroke="#000000" stroke-width="1"/>
	<line x1="443" y1="350" x2="577" y2="224" stroke="#000000" stroke-width="1"/>
	<line x1="577" y1="350" x2="577" y2="224" stroke="#000000" stroke-width="1"/>
	<g>
		<polygon points="577 195.13 552 238.43 602 238.43" stroke="#000000" stroke-width="1.5" fill="#FFFFFF"/>
		<text x="565" y="230" fill="#000000" font-family="Copperplate" font-size="18">XT</text>
	</g>
</g>

<!-- Inheritance ENTREPRISE_PARENT_#3 -->
<g>
	<line x1="577" y1="493" x2="296" y2="350" stroke="#000000" stroke-width="1"/>
	<polygon points="518 462.98 504.58 462.88 510.87 459.35 510.03 452.19" fill="#000000" stroke-width="0"/>
	<line x1="191" y1="350" x2="296" y2="350" stroke="#000000" stroke-width="1"/>
	<g>
		<polygon points="296 321.13 271 364.43 321 364.43" stroke="#000000" stroke-width="1.5" fill="#FFFFFF"/>
		<text x="296" y="356" fill="#000000" font-family="Copperplate" font-size="18"></text>
	</g>
</g>

<!-- Association A_3 -->
<g>
	<line x1="191" y1="90" x2="85" y2="90" stroke="#000000" stroke-width="1"/>
	<line x1="85" y1="224" x2="85" y2="90" stroke="#000000" stroke-width="1"/>
	<g>
		<path d="M88 61 a14 14 90 0 1 14 14 V89 h-34 V75 a14 14 90 0 1 14 -14" fill="#FFFFFF" stroke="#FFFFFF" stroke-width="0"/>
		<path d="M102 89 v16 a14 14 90 0 1 -14 14 H82 a14 14 90 0 1 -14 -14 V89 H34" fill="#FFFFFF" stroke="#FFFFFF" stroke-width="0"/>
		<rect x="68" y="61" width="34" height="58" fill="none" rx="14" stroke="#000000" stroke-width="1.5"/>
		<line x1="68" y1="89" x2="102" y2="89" stroke="#000000" stroke-width="1.5"/>
		<text x="76" y="82.3" fill="#000000" font-family="Copperplate" font-size="18">A </text>
	</g>
	<text x="118" y="106" fill="#000000" font-family="Futura" font-size="11">0,1</text>
	<text x="90" y="152" fill="#000000" font-family="Futura" font-size="11">1,1</text>
</g>

<!-- Association EST_AUTORISE -->
<g>
	<line x1="191" y1="90" x2="296" y2="224" stroke="#000000" stroke-width="1"/>
	<line x1="191" y1="350" x2="296" y2="224" stroke="#000000" stroke-width="1"/>
	<line x1="443" y1="224" x2="296" y2="224" stroke="#000000" stroke-width="1"/>
	<g>
		<path d="M347 195 a14 14 90 0 1 14 14 V223 h-130 V209 a14 14 90 0 1 14 -14" fill="#FFFFFF" stroke="#FFFFFF" stroke-width="0"/>
		<path d="M361 223 v16 a14 14 90 0 1 -14 14 H245 a14 14 90 0 1 -14 -14 V223 H130" fill="#FFFFFF" stroke="#FFFFFF" stroke-width="0"/>
		<rect x="231" y="195" width="130" height="58" fill="none" rx="14" stroke="#000000" stroke-width="1.5"/>
		<line x1="231" y1="223" x2="361" y2="223" stroke="#000000" stroke-width="1.5"/>
		<text x="238" y="216.3" fill="#000000" font-family="Copperplate" font-size="18">Est autorisé</text>
		<text x="238" y="241.1" fill="#000000" font-family="Gill Sans" font-size="15">nature</text>
	</g>
	<text x="201.64" y="144" fill="#000000" font-family="Futura" font-size="11">N,N</text>
	<text x="204.83" y="304" fill="#000000" font-family="Futura" font-size="11">1,N</text>
	<text x="367" y="240" fill="#000000" font-family="Futura" font-size="11">0,N</text>
</g>

<!-- Association ASSIGNER -->
<g>
	<line x1="702" y1="350" x2="702" y2="224" stroke="#000000" stroke-width="1"/>
	<line x1="702" y1="90" x2="702" y2="224" stroke="#000000" stroke-width="1"/>
	<g>
		<path d="M743 195 a14 14 90 0 1 14 14 V223 h-110 V209 a14 14 90 0 1 14 -14" fill="#FFFFFF" stroke="#FFFFFF" stroke-width="0"/>
		<path d="M757 223 v16 a14 14 90 0 1 -14 14 H661 a14 14 90 0 1 -14 -14 V223 H110" fill="#FFFFFF" stroke="#FFFFFF" stroke-width="0"/>
		<rect x="647" y="195" width="110" height="58" fill="none" rx="14" stroke="#000000" stroke-width="1.5"/>
		<line x1="647" y1="223" x2="757" y2="223" stroke="#000000" stroke-width="1.5"/>
		<text x="655" y="216.3" fill="#000000" font-family="Copperplate" font-size="18">ASSIGNER</text>
	</g>
	<text x="707" y="278" fill="#000000" font-family="Futura" font-size="11">0,N</text>
	<text x="678" y="187" fill="#000000" font-family="Futura" font-size="11">0,N</text>
</g>

<!-- Association A_2 -->
<g>
	<line x1="191" y1="350" x2="85" y2="350" stroke="#000000" stroke-width="1"/>
	<line x1="85" y1="224" x2="85" y2="350" stroke="#000000" stroke-width="1"/>
	<g>
		<path d="M88 321 a14 14 90 0 1 14 14 V349 h-34 V335 a14 14 90 0 1 14 -14" fill="#FFFFFF" stroke="#FFFFFF" stroke-width="0"/>
		<path d="M102 349 v16 a14 14 90 0 1 -14 14 H82 a14 14 90 0 1 -14 -14 V349 H34" fill="#FFFFFF" stroke="#FFFFFF" stroke-width="0"/>
		<rect x="68" y="321" width="34" height="58" fill="none" rx="14" stroke="#000000" stroke-width="1.5"/>
		<line x1="68" y1="349" x2="102" y2="349" stroke="#000000" stroke-width="1.5"/>
		<text x="76" y="342.3" fill="#000000" font-family="Copperplate" font-size="18">A </text>
	</g>
	<text x="122" y="366" fill="#000000" font-family="Futura" font-size="11">0,1</text>
	<text x="90" y="304" fill="#000000" font-family="Futura" font-size="11">1,1</text>
</g>

<!-- Association EMPLOYER -->
<g>
	<line x1="577" y1="493" x2="831" y2="350" stroke="#000000" stroke-width="1"/>
	<line x1="702" y1="90" x2="831" y2="350" stroke="#000000" stroke-width="1"/>
	<g>
		<path d="M875 321 a14 14 90 0 1 14 14 V349 h-116 V335 a14 14 90 0 1 14 -14" fill="#FFFFFF" stroke="#FFFFFF" stroke-width="0"/>
		<path d="M889 349 v16 a14 14 90 0 1 -14 14 H787 a14 14 90 0 1 -14 -14 V349 H116" fill="#FFFFFF" stroke="#FFFFFF" stroke-width="0"/>
		<rect x="773" y="321" width="116" height="58" fill="none" rx="14" stroke="#000000" stroke-width="1.5"/>
		<line x1="773" y1="349" x2="889" y2="349" stroke="#000000" stroke-width="1.5"/>
		<text x="781" y="342.3" fill="#000000" font-family="Copperplate" font-size="18">EMPLOYER</text>
	</g>
	<text x="641" y="471.41" fill="#000000" font-family="Futura" font-size="11">1,N</text>
	<text x="722.07" y="187" fill="#000000" font-family="Futura" font-size="11">0,N</text>
</g>

<!-- Entity USER -->
<g>
	<g>
		<rect x="141" y="52" width="100" height="30" fill="#FFFFFF" stroke="none" stroke-width="0" opacity="1"/>
		<rect x="141" y="82" width="100" height="46" fill="#FFFFFF" stroke="none" stroke-width="0" opacity="1"/>
		<rect x="141" y="52" width="100" height="76" fill="none" stroke="#000000" stroke-width="1.5" opacity="1"/>
		<line x1="141" y1="82" x2="241" y2="82" stroke="#000000" stroke-width="1.5"/>
	</g>
	<text x="169" y="73.3" fill="#000000" font-family="Copperplate" font-size="18">User</text>
	<text x="149" y="99.1" fill="#000000" font-family="Gill Sans" font-size="15">Email</text>
	<text x="149" y="116.1" fill="#000000" font-family="Gill Sans" font-size="15">mot de passe</text>
</g>

<!-- Entity PERSONNE -->
<g>
	<g>
		<rect x="639" y="9" width="126" height="30" fill="#FFFFFF" stroke="none" stroke-width="0" opacity="1"/>
		<rect x="639" y="39" width="126" height="132" fill="#FFFFFF" stroke="none" stroke-width="0" opacity="1"/>
		<rect x="639" y="9" width="126" height="162" fill="none" stroke="#000000" stroke-width="1.5" opacity="1"/>
		<line x1="639" y1="39" x2="765" y2="39" stroke="#000000" stroke-width="1.5"/>
	</g>
	<text x="658" y="30.3" fill="#000000" font-family="Copperplate" font-size="18">Personne</text>
	<text x="647" y="56" fill="#000000" font-family="Gill Sans" font-size="15">email</text>
	<text x="647" y="73.1" fill="#000000" font-family="Gill Sans" font-size="15">nom de famille</text>
	<text x="647" y="90.1" fill="#000000" font-family="Gill Sans" font-size="15">prénom</text>
	<text x="647" y="107.1" fill="#000000" font-family="Gill Sans" font-size="15">date de naissance</text>
	<text x="647" y="124" fill="#000000" font-family="Gill Sans" font-size="15">téléphone</text>
	<text x="647" y="141" fill="#000000" font-family="Gill Sans" font-size="15">code postal</text>
	<text x="647" y="158" fill="#000000" font-family="Gill Sans" font-size="15">métier</text>
</g>

<!-- Entity REFRESH_TOKEN -->
<g>
	<g>
		<rect x="9" y="160" width="152" height="30" fill="#FFFFFF" stroke="none" stroke-width="0" opacity="1"/>
		<rect x="9" y="190" width="152" height="98" fill="#FFFFFF" stroke="none" stroke-width="0" opacity="1"/>
		<rect x="9" y="160" width="152" height="128" fill="none" stroke="#000000" stroke-width="1.5" opacity="1"/>
		<line x1="9" y1="190" x2="161" y2="190" stroke="#000000" stroke-width="1.5"/>
	</g>
	<text x="17" y="181.3" fill="#000000" font-family="Copperplate" font-size="18">Refresh Token</text>
	<text x="17" y="207.1" fill="#000000" font-family="Gill Sans" font-size="15">token</text>
	<line x1="17" y1="210" x2="54" y2="210" stroke="#000000" stroke-width="1"/>
	<text x="17" y="224.1" fill="#000000" font-family="Gill Sans" font-size="15">client id</text>
	<text x="17" y="241.1" fill="#000000" font-family="Gill Sans" font-size="15">user id</text>
	<text x="17" y="258" fill="#000000" font-family="Gill Sans" font-size="15">expires at</text>
	<text x="17" y="275" fill="#000000" font-family="Gill Sans" font-size="15">revoked at</text>
</g>

<!-- Entity RESOURCE -->
<g>
	<g>
		<rect x="391" y="177" width="104" height="30" fill="#FFFFFF" stroke="none" stroke-width="0" opacity="1"/>
		<rect x="391" y="207" width="104" height="64" fill="#FFFFFF" stroke="none" stroke-width="0" opacity="1"/>
		<rect x="391" y="177" width="104" height="94" fill="none" stroke="#000000" stroke-width="1.5" opacity="1"/>
		<line x1="391" y1="207" x2="495" y2="207" stroke="#000000" stroke-width="1.5"/>
	</g>
	<text x="399" y="198.3" fill="#000000" font-family="Copperplate" font-size="18">Resource</text>
	<text x="399" y="224.1" fill="#000000" font-family="Gill Sans" font-size="15">name</text>
	<line x1="399" y1="227" x2="433" y2="227" stroke="#000000" stroke-width="1"/>
	<text x="399" y="241.1" fill="#000000" font-family="Gill Sans" font-size="15">type</text>
</g>

<!-- Entity CLIENT -->
<g>
	<g>
		<rect x="145" y="312" width="92" height="30" fill="#FFFFFF" stroke="none" stroke-width="0" opacity="1"/>
		<rect x="145" y="342" width="92" height="46" fill="#FFFFFF" stroke="none" stroke-width="0" opacity="1"/>
		<rect x="145" y="312" width="92" height="76" fill="none" stroke="#000000" stroke-width="1.5" opacity="1"/>
		<line x1="145" y1="342" x2="237" y2="342" stroke="#000000" stroke-width="1.5"/>
	</g>
	<text x="161" y="333.3" fill="#000000" font-family="Copperplate" font-size="18">Client</text>
	<text x="153" y="359.1" fill="#000000" font-family="Gill Sans" font-size="15">name</text>
	<text x="153" y="376.1" fill="#000000" font-family="Gill Sans" font-size="15">redirect_uri</text>
</g>

<!-- Entity DATABASE -->
<g>
	<g>
		<rect x="393" y="312" width="100" height="30" fill="#FFFFFF" stroke="none" stroke-width="0" opacity="1"/>
		<rect x="393" y="342" width="100" height="46" fill="#FFFFFF" stroke="none" stroke-width="0" opacity="1"/>
		<rect x="393" y="312" width="100" height="76" fill="none" stroke="#000000" stroke-width="1.5" opacity="1"/>
		<line x1="393" y1="342" x2="493" y2="342" stroke="#000000" stroke-width="1.5"/>
	</g>
	<text x="401" y="333.3" fill="#000000" font-family="Copperplate" font-size="18">Database</text>
	<text x="401" y="359.1" fill="#000000" font-family="Gill Sans" font-size="15">name</text>
</g>

<!-- Entity DOCUMENT -->
<g>
	<g>
		<rect x="523" y="312" width="108" height="30" fill="#FFFFFF" stroke="none" stroke-width="0" opacity="1"/>
		<rect x="523" y="342" width="108" height="46" fill="#FFFFFF" stroke="none" stroke-width="0" opacity="1"/>
		<rect x="523" y="312" width="108" height="76" fill="none" stroke="#000000" stroke-width="1.5" opacity="1"/>
		<line x1="523" y1="342" x2="631" y2="342" stroke="#000000" stroke-width="1.5"/>
	</g>
	<text x="532" y="333.3" fill="#000000" font-family="Copperplate" font-size="18">Document</text>
	<text x="531" y="359.1" fill="#000000" font-family="Gill Sans" font-size="15">titre</text>
	<text x="531" y="376.1" fill="#000000" font-family="Gill Sans" font-size="15">contenu</text>
</g>

<!-- Entity TACHE -->
<g>
	<g>
		<rect x="661" y="286" width="82" height="30" fill="#FFFFFF" stroke="none" stroke-width="0" opacity="1"/>
		<rect x="661" y="316" width="82" height="98" fill="#FFFFFF" stroke="none" stroke-width="0" opacity="1"/>
		<rect x="661" y="286" width="82" height="128" fill="none" stroke="#000000" stroke-width="1.5" opacity="1"/>
		<line x1="661" y1="316" x2="743" y2="316" stroke="#000000" stroke-width="1.5"/>
	</g>
	<text x="675" y="307.3" fill="#000000" font-family="Copperplate" font-size="18">Tâche</text>
	<text x="669" y="333.1" fill="#000000" font-family="Gill Sans" font-size="15">contenu</text>
	<text x="669" y="350.1" fill="#000000" font-family="Gill Sans" font-size="15">date limite</text>
	<text x="669" y="367.1" fill="#000000" font-family="Gill Sans" font-size="15">assigné à</text>
	<text x="669" y="384" fill="#000000" font-family="Gill Sans" font-size="15">priorité</text>
	<text x="669" y="401" fill="#000000" font-family="Gill Sans" font-size="15">progrès</text>
</g>

<!-- Entity ENTREPRISE -->
<g>
	<g>
		<rect x="518" y="438" width="118" height="30" fill="#FFFFFF" stroke="none" stroke-width="0" opacity="1"/>
		<rect x="518" y="468" width="118" height="80" fill="#FFFFFF" stroke="none" stroke-width="0" opacity="1"/>
		<rect x="518" y="438" width="118" height="110" fill="none" stroke="#000000" stroke-width="1.5" opacity="1"/>
		<line x1="518" y1="468" x2="636" y2="468" stroke="#000000" stroke-width="1.5"/>
	</g>
	<text x="526" y="459.3" fill="#000000" font-family="Copperplate" font-size="18">Entreprise</text>
	<text x="526" y="485.1" fill="#000000" font-family="Gill Sans" font-size="15">nom</text>
	<line x1="526" y1="488" x2="555" y2="488" stroke="#000000" stroke-width="1"/>
	<text x="526" y="502.1" fill="#000000" font-family="Gill Sans" font-size="15">code postal</text>
	<text x="526" y="519.1" fill="#000000" font-family="Gill Sans" font-size="15">siret</text>
	<text x="526" y="536" fill="#000000" font-family="Gill Sans" font-size="15">dirigeant</text>
</g>
</svg>