<?xml version="1.0" encoding="utf-8"?>
<!-- Generated by Mocodo 4.3.2 -->
<svg width="1153" height="908" viewBox="0 0 1153 908" xmlns="http://www.w3.org/2000/svg">
<rect x="0" y="0" width="1153" height="908" fill="#f7f7f7" stroke="none" stroke-width="0"/>

<!-- Inheritance RESOURCE_PARENT_#1 -->
<g>
	<line x1="70" y1="403" x2="70" y2="242" stroke="#9970ab" stroke-width="1"/>
	<polygon points="70 365 64 353 70 357 76 353" fill="#9970ab" stroke-width="0"/>
	<line x1="70" y1="90" x2="70" y2="242" stroke="#9970ab" stroke-width="1"/>
	<line x1="358" y1="242" x2="70" y2="242" stroke="#9970ab" stroke-width="1"/>
	<g>
		<polygon points="70 213.13 45 256.43 95 256.43" stroke="#9970ab" stroke-width="1.5" fill="#c2a5cf"/>
		<text x="58" y="248" fill="#000000" font-family="Copperplate" font-size="18">XT</text>
	</g>
</g>

<!-- Inheritance PERSONNE_PARENT_#2 -->
<g>
	<line x1="358" y1="242" x2="519" y2="403" stroke="#9970ab" stroke-width="1"/>
	<polygon points="421 305 433.73 309.24 426.66 310.66 425.24 317.73" fill="#9970ab" stroke-width="0"/>
	<line x1="358" y1="403" x2="519" y2="403" stroke="#9970ab" stroke-width="1"/>
	<line x1="687" y1="403" x2="519" y2="403" stroke="#9970ab" stroke-width="1"/>
	<g>
		<polygon points="519 374.13 494 417.43 544 417.43" stroke="#9970ab" stroke-width="1.5" fill="#c2a5cf"/>
		<text x="519" y="409" fill="#000000" font-family="Copperplate" font-size="18"></text>
	</g>
</g>

<!-- Association ASSIGNED_TO -->
<g>
	<line x1="70" y1="90" x2="358" y2="90" stroke="#9970ab" stroke-width="1"/>
	<line x1="358" y1="242" x2="358" y2="90" stroke="#9970ab" stroke-width="1"/>
	<g>
		<path d="M414 61 a14 14 90 0 1 14 14 V89 h-140 V75 a14 14 90 0 1 14 -14" fill="#c2a5cf" stroke="#c2a5cf" stroke-width="0"/>
		<path d="M428 89 v16 a14 14 90 0 1 -14 14 H302 a14 14 90 0 1 -14 -14 V89 H140" fill="#e7d4e8" stroke="#e7d4e8" stroke-width="0"/>
		<rect x="288" y="61" width="140" height="58" fill="none" rx="14" stroke="#9970ab" stroke-width="1.5"/>
		<line x1="288" y1="89" x2="428" y2="89" stroke="#9970ab" stroke-width="1.5"/>
		<text x="295" y="82.3" fill="#000000" font-family="Copperplate" font-size="18">ASSIGNED TO</text>
	</g>
	<text x="121" y="111" fill="#1b7837" font-family="Futura" font-size="11">0,N</text>
	<text x="330" y="140" fill="#1b7837" font-family="Futura" font-size="11">0,1</text>
</g>

<!-- Association HABITER -->
<g>
	<line x1="358" y1="242" x2="519" y2="90" stroke="#9970ab" stroke-width="1"/>
	<line x1="687" y1="90" x2="519" y2="90" stroke="#9970ab" stroke-width="1"/>
	<g>
		<path d="M553 61 a14 14 90 0 1 14 14 V89 h-96 V75 a14 14 90 0 1 14 -14" fill="#c2a5cf" stroke="#c2a5cf" stroke-width="0"/>
		<path d="M567 89 v16 a14 14 90 0 1 -14 14 H485 a14 14 90 0 1 -14 -14 V89 H96" fill="#e7d4e8" stroke="#e7d4e8" stroke-width="0"/>
		<rect x="471" y="61" width="96" height="58" fill="none" rx="14" stroke="#9970ab" stroke-width="1.5"/>
		<line x1="471" y1="89" x2="567" y2="89" stroke="#9970ab" stroke-width="1.5"/>
		<text x="478" y="82.3" fill="#000000" font-family="Copperplate" font-size="18">HABITER</text>
	</g>
	<text x="431" y="189.95" fill="#1b7837" font-family="Futura" font-size="11">N,N</text>
	<text x="611" y="111" fill="#1b7837" font-family="Futura" font-size="11">N,N</text>
</g>

<!-- Association LOCALISER -->
<g>
	<line x1="687" y1="90" x2="841" y2="90" stroke="#9970ab" stroke-width="1"/>
	<line x1="974" y1="90" x2="841" y2="90" stroke="#9970ab" stroke-width="1"/>
	<g>
		<path d="M887 61 a14 14 90 0 1 14 14 V89 h-120 V75 a14 14 90 0 1 14 -14" fill="#c2a5cf" stroke="#c2a5cf" stroke-width="0"/>
		<path d="M901 89 v16 a14 14 90 0 1 -14 14 H795 a14 14 90 0 1 -14 -14 V89 H120" fill="#e7d4e8" stroke="#e7d4e8" stroke-width="0"/>
		<rect x="781" y="61" width="120" height="58" fill="none" rx="14" stroke="#9970ab" stroke-width="1.5"/>
		<line x1="781" y1="89" x2="901" y2="89" stroke="#9970ab" stroke-width="1.5"/>
		<text x="789" y="82.3" fill="#000000" font-family="Copperplate" font-size="18">LOCALISER</text>
	</g>
	<text x="743" y="77" fill="#1b7837" font-family="Futura" font-size="11">N,N</text>
	<text x="911" y="111" fill="#1b7837" font-family="Futura" font-size="11">N,N</text>
</g>

<!-- Association SITUER_2 -->
<g>
	<line x1="974" y1="90" x2="1091" y2="90" stroke="#9970ab" stroke-width="1"/>
	<line x1="1091" y1="242" x2="1091" y2="90" stroke="#9970ab" stroke-width="1"/>
	<g>
		<path d="M1121 61 a14 14 90 0 1 14 14 V89 h-88 V75 a14 14 90 0 1 14 -14" fill="#c2a5cf" stroke="#c2a5cf" stroke-width="0"/>
		<path d="M1135 89 v16 a14 14 90 0 1 -14 14 H1061 a14 14 90 0 1 -14 -14 V89 H88" fill="#e7d4e8" stroke="#e7d4e8" stroke-width="0"/>
		<rect x="1047" y="61" width="88" height="58" fill="none" rx="14" stroke="#9970ab" stroke-width="1.5"/>
		<line x1="1047" y1="89" x2="1135" y2="89" stroke="#9970ab" stroke-width="1.5"/>
		<text x="1055" y="82.3" fill="#000000" font-family="Copperplate" font-size="18">SITUER </text>
	</g>
	<text x="1017" y="111" fill="#1b7837" font-family="Futura" font-size="11">N,N</text>
	<text x="1101" y="199" fill="#1b7837" font-family="Futura" font-size="11">N,N</text>
</g>

<!-- Association EMPLOYER -->
<g>
	<line x1="687" y1="242" x2="519" y2="242" stroke="#9970ab" stroke-width="1"/>
	<line x1="358" y1="242" x2="519" y2="242" stroke="#9970ab" stroke-width="1"/>
	<g>
		<path d="M563 213 a14 14 90 0 1 14 14 V241 h-116 V227 a14 14 90 0 1 14 -14" fill="#c2a5cf" stroke="#c2a5cf" stroke-width="0"/>
		<path d="M577 241 v16 a14 14 90 0 1 -14 14 H475 a14 14 90 0 1 -14 -14 V241 H116" fill="#e7d4e8" stroke="#e7d4e8" stroke-width="0"/>
		<rect x="461" y="213" width="116" height="58" fill="none" rx="14" stroke="#9970ab" stroke-width="1.5"/>
		<line x1="461" y1="241" x2="577" y2="241" stroke="#9970ab" stroke-width="1.5"/>
		<text x="469" y="234.3" fill="#000000" font-family="Copperplate" font-size="18">EMPLOYER</text>
	</g>
	<text x="587" y="263" fill="#1b7837" font-family="Futura" font-size="11">N,N</text>
	<text x="431" y="263" fill="#1b7837" font-family="Futura" font-size="11">N,N</text>
</g>

<!-- Association SITUER_1 -->
<g>
	<line x1="687" y1="242" x2="841" y2="242" stroke="#9970ab" stroke-width="1"/>
	<line x1="687" y1="90" x2="841" y2="242" stroke="#9970ab" stroke-width="1"/>
	<g>
		<path d="M871 213 a14 14 90 0 1 14 14 V241 h-88 V227 a14 14 90 0 1 14 -14" fill="#c2a5cf" stroke="#c2a5cf" stroke-width="0"/>
		<path d="M885 241 v16 a14 14 90 0 1 -14 14 H811 a14 14 90 0 1 -14 -14 V241 H88" fill="#e7d4e8" stroke="#e7d4e8" stroke-width="0"/>
		<rect x="797" y="213" width="88" height="58" fill="none" rx="14" stroke="#9970ab" stroke-width="1.5"/>
		<line x1="797" y1="241" x2="885" y2="241" stroke="#9970ab" stroke-width="1.5"/>
		<text x="805" y="234.3" fill="#000000" font-family="Copperplate" font-size="18">SITUER </text>
	</g>
	<text x="767" y="263" fill="#1b7837" font-family="Futura" font-size="11">N,N</text>
	<text x="743" y="136.41" fill="#1b7837" font-family="Futura" font-size="11">N,N</text>
</g>

<!-- Association MODIFIER -->
<g>
	<line x1="358" y1="403" x2="215" y2="403" stroke="#9970ab" stroke-width="1"/>
	<line x1="687" y1="403" x2="215" y2="403" stroke="#9970ab" stroke-width="1"/>
	<line x1="70" y1="513" x2="215" y2="403" stroke="#9970ab" stroke-width="1"/>
	<line x1="70" y1="403" x2="215" y2="403" stroke="#9970ab" stroke-width="1"/>
	<g>
		<path d="M254 374 a14 14 90 0 1 14 14 V402 h-106 V388 a14 14 90 0 1 14 -14" fill="#c2a5cf" stroke="#c2a5cf" stroke-width="0"/>
		<path d="M268 402 v16 a14 14 90 0 1 -14 14 H176 a14 14 90 0 1 -14 -14 V402 H106" fill="#e7d4e8" stroke="#e7d4e8" stroke-width="0"/>
		<rect x="162" y="374" width="106" height="58" fill="none" rx="14" stroke="#9970ab" stroke-width="1.5"/>
		<line x1="162" y1="402" x2="268" y2="402" stroke="#9970ab" stroke-width="1.5"/>
		<text x="170" y="395.3" fill="#000000" font-family="Copperplate" font-size="18">MODIFIER</text>
	</g>
	<text x="279" y="390" fill="#1b7837" font-family="Futura" font-size="11">1,N</text>
	<text x="612" y="390" fill="#1b7837" font-family="Futura" font-size="11">0,N</text>
	<text x="130" y="484.65" fill="#1b7837" font-family="Futura" font-size="11">0,N</text>
	<text x="132" y="390" fill="#1b7837" font-family="Futura" font-size="11">0,N</text>
</g>

<!-- Association ACCEDER -->
<g>
	<line x1="358" y1="403" x2="215" y2="513" stroke="#9970ab" stroke-width="1"/>
	<line x1="687" y1="403" x2="215" y2="513" stroke="#9970ab" stroke-width="1"/>
	<line x1="70" y1="513" x2="215" y2="513" stroke="#9970ab" stroke-width="1"/>
	<line x1="70" y1="403" x2="215" y2="513" stroke="#9970ab" stroke-width="1"/>
	<g>
		<path d="M253 484 a14 14 90 0 1 14 14 V512 h-104 V498 a14 14 90 0 1 14 -14" fill="#c2a5cf" stroke="#c2a5cf" stroke-width="0"/>
		<path d="M267 512 v16 a14 14 90 0 1 -14 14 H177 a14 14 90 0 1 -14 -14 V512 H104" fill="#e7d4e8" stroke="#e7d4e8" stroke-width="0"/>
		<rect x="163" y="484" width="104" height="58" fill="none" rx="14" stroke="#9970ab" stroke-width="1.5"/>
		<line x1="163" y1="512" x2="267" y2="512" stroke="#9970ab" stroke-width="1.5"/>
		<text x="171" y="505.3" fill="#000000" font-family="Copperplate" font-size="18">ACCEDER</text>
	</g>
	<text x="307.04" y="462" fill="#1b7837" font-family="Futura" font-size="11">1,N</text>
	<text x="612" y="404.3" fill="#1b7837" font-family="Futura" font-size="11">0,N</text>
	<text x="130" y="534" fill="#1b7837" font-family="Futura" font-size="11">0,N</text>
	<text x="102.51" y="462" fill="#1b7837" font-family="Futura" font-size="11">0,N</text>
</g>

<!-- Association CREER -->
<g>
	<line x1="358" y1="403" x2="215" y2="605" stroke="#9970ab" stroke-width="1"/>
	<circle cx="635.48" cy="425.05" r="6" stroke="#5aae61" stroke-width="1" fill="#d9f0d355"/>
	<line x1="687" y1="403" x2="215" y2="605" stroke="#9970ab" stroke-width="1"/>
	<line x1="70" y1="513" x2="215" y2="605" stroke="#9970ab" stroke-width="1"/>
	<line x1="70" y1="403" x2="215" y2="605" stroke="#9970ab" stroke-width="1"/>
	<g>
		<path d="M240 576 a14 14 90 0 1 14 14 V604 h-78 V590 a14 14 90 0 1 14 -14" fill="#c2a5cf" stroke="#c2a5cf" stroke-width="0"/>
		<path d="M254 604 v16 a14 14 90 0 1 -14 14 H190 a14 14 90 0 1 -14 -14 V604 H78" fill="#e7d4e8" stroke="#e7d4e8" stroke-width="0"/>
		<rect x="176" y="576" width="78" height="58" fill="none" rx="14" stroke="#9970ab" stroke-width="1.5"/>
		<line x1="176" y1="604" x2="254" y2="604" stroke="#9970ab" stroke-width="1.5"/>
		<text x="183" y="597.3" fill="#000000" font-family="Copperplate" font-size="18">CREER</text>
	</g>
	<text x="330.33" y="462" fill="#1b7837" font-family="Futura" font-size="11">1,N</text>
	<text x="612" y="416.39" fill="#1b7837" font-family="Futura" font-size="11">0,N</text>
	<text x="130" y="541.5" fill="#1b7837" font-family="Futura" font-size="11">0,N</text>
	<text x="79.18" y="462" fill="#1b7837" font-family="Futura" font-size="11">0,N</text>
</g>

<!-- Association HAS -->
<g>
	<line x1="358" y1="403" x2="215" y2="732" stroke="#9970ab" stroke-width="1"/>
	<line x1="687" y1="403" x2="215" y2="732" stroke="#9970ab" stroke-width="1"/>
	<line x1="358" y1="732" x2="215" y2="732" stroke="#9970ab" stroke-width="1"/>
	<g>
		<path d="M228 703 a14 14 90 0 1 14 14 V731 h-54 V717 a14 14 90 0 1 14 -14" fill="#c2a5cf" stroke="#c2a5cf" stroke-width="0"/>
		<path d="M242 731 v16 a14 14 90 0 1 -14 14 H202 a14 14 90 0 1 -14 -14 V731 H54" fill="#e7d4e8" stroke="#e7d4e8" stroke-width="0"/>
		<rect x="188" y="703" width="54" height="58" fill="none" rx="14" stroke="#9970ab" stroke-width="1.5"/>
		<line x1="188" y1="731" x2="242" y2="731" stroke="#9970ab" stroke-width="1.5"/>
		<text x="196" y="724.3" fill="#000000" font-family="Copperplate" font-size="18">HAS</text>
	</g>
	<text x="344.67" y="462" fill="#1b7837" font-family="Futura" font-size="11">1,N</text>
	<text x="612" y="432.69" fill="#1b7837" font-family="Futura" font-size="11">1,N</text>
	<text x="253" y="753" fill="#1b7837" font-family="Futura" font-size="11">0,N</text>
</g>

<!-- Association A -->
<g>
	<line x1="358" y1="403" x2="215" y2="860" stroke="#9970ab" stroke-width="1"/>
	<line x1="687" y1="403" x2="215" y2="860" stroke="#9970ab" stroke-width="1"/>
	<line x1="358" y1="860" x2="215" y2="860" stroke="#9970ab" stroke-width="1"/>
	<g>
		<path d="M215 831 a14 14 90 0 1 14 14 V859 h-28 V845 a14 14 90 0 1 14 -14" fill="#c2a5cf" stroke="#c2a5cf" stroke-width="0"/>
		<path d="M229 859 v16 a14 14 90 0 1 -14 14 H215 a14 14 90 0 1 -14 -14 V859 H28" fill="#e7d4e8" stroke="#e7d4e8" stroke-width="0"/>
		<rect x="201" y="831" width="28" height="58" fill="none" rx="14" stroke="#9970ab" stroke-width="1.5"/>
		<line x1="201" y1="859" x2="229" y2="859" stroke="#9970ab" stroke-width="1.5"/>
		<text x="209" y="852.3" fill="#000000" font-family="Copperplate" font-size="18">A</text>
	</g>
	<text x="351.24" y="462" fill="#1b7837" font-family="Futura" font-size="11">N,N</text>
	<text x="643.93" y="462" fill="#1b7837" font-family="Futura" font-size="11">N,N</text>
	<text x="297" y="881" fill="#1b7837" font-family="Futura" font-size="11">N,N</text>
</g>

<!-- Association COMPOSER -->
<g>
	<line x1="687" y1="860" x2="519" y2="860" stroke="#9970ab" stroke-width="1"/>
	<line x1="358" y1="860" x2="519" y2="860" stroke="#9970ab" stroke-width="1"/>
	<g>
		<path d="M565 831 a14 14 90 0 1 14 14 V859 h-120 V845 a14 14 90 0 1 14 -14" fill="#c2a5cf" stroke="#c2a5cf" stroke-width="0"/>
		<path d="M579 859 v16 a14 14 90 0 1 -14 14 H473 a14 14 90 0 1 -14 -14 V859 H120" fill="#e7d4e8" stroke="#e7d4e8" stroke-width="0"/>
		<rect x="459" y="831" width="120" height="58" fill="none" rx="14" stroke="#9970ab" stroke-width="1.5"/>
		<line x1="459" y1="859" x2="579" y2="859" stroke="#9970ab" stroke-width="1.5"/>
		<text x="466" y="852.3" fill="#000000" font-family="Copperplate" font-size="18">COMPOSER</text>
	</g>
	<text x="598" y="881" fill="#1b7837" font-family="Futura" font-size="11">N,N</text>
	<text x="399" y="881" fill="#1b7837" font-family="Futura" font-size="11">N,N</text>
</g>

<!-- Entity TACHE -->
<g>
	<g>
		<rect x="29" y="18" width="82" height="30" fill="#a6dba0" stroke="none" stroke-width="0" opacity="1"/>
		<rect x="29" y="48" width="82" height="114" fill="#d9f0d3" stroke="none" stroke-width="0" opacity="1"/>
		<rect x="29" y="18" width="82" height="144" fill="none" stroke="#5aae61" stroke-width="1.5" opacity="1"/>
		<line x1="29" y1="48" x2="111" y2="48" stroke="#5aae61" stroke-width="1.5"/>
	</g>
	<text x="43" y="39.3" fill="#000000" font-family="Copperplate" font-size="18">Tâche</text>
	<text x="37" y="65.1" fill="#000000" font-family="Gill Sans" font-size="15">id</text>
	<text x="37" y="82.1" fill="#000000" font-family="Gill Sans" font-size="15">contenu</text>
	<text x="37" y="99.1" fill="#000000" font-family="Gill Sans" font-size="15">date limite</text>
	<text x="37" y="116.1" fill="#000000" font-family="Gill Sans" font-size="15">assigné à</text>
	<text x="37" y="133" fill="#000000" font-family="Gill Sans" font-size="15">priorité</text>
	<text x="37" y="150" fill="#000000" font-family="Gill Sans" font-size="15">progrès</text>
</g>

<!-- Entity ADRESSE -->
<g>
	<g>
		<rect x="641" y="43" width="92" height="30" fill="#a6dba0" stroke="none" stroke-width="0" opacity="1"/>
		<rect x="641" y="73" width="92" height="64" fill="#d9f0d3" stroke="none" stroke-width="0" opacity="1"/>
		<rect x="641" y="43" width="92" height="94" fill="none" stroke="#5aae61" stroke-width="1.5" opacity="1"/>
		<line x1="641" y1="73" x2="733" y2="73" stroke="#5aae61" stroke-width="1.5"/>
	</g>
	<text x="650" y="64.3" fill="#000000" font-family="Copperplate" font-size="18">Adresse</text>
	<text x="649" y="90.1" fill="#000000" font-family="Gill Sans" font-size="15">nom de rue</text>
	<line x1="649" y1="93" x2="723" y2="93" stroke="#000000" stroke-width="1"/>
	<text x="649" y="107.1" fill="#000000" font-family="Gill Sans" font-size="15">code postal</text>
	<text x="649" y="124" fill="#000000" font-family="Gill Sans" font-size="15">pays</text>
</g>

<!-- Entity VILLE -->
<g>
	<g>
		<rect x="941" y="60" width="66" height="30" fill="#a6dba0" stroke="none" stroke-width="0" opacity="1"/>
		<rect x="941" y="90" width="66" height="30" fill="#d9f0d3" stroke="none" stroke-width="0" opacity="1"/>
		<rect x="941" y="60" width="66" height="60" fill="none" stroke="#5aae61" stroke-width="1.5" opacity="1"/>
		<line x1="941" y1="90" x2="1007" y2="90" stroke="#5aae61" stroke-width="1.5"/>
	</g>
	<text x="950" y="81.3" fill="#000000" font-family="Copperplate" font-size="18">Ville</text>
	<text x="949" y="107.1" fill="#000000" font-family="Gill Sans" font-size="15">nom</text>
	<line x1="949" y1="110" x2="978" y2="110" stroke="#000000" stroke-width="1"/>
</g>

<!-- Entity PERSONNE -->
<g>
	<g>
		<rect x="295" y="153" width="126" height="30" fill="#a6dba0" stroke="none" stroke-width="0" opacity="1"/>
		<rect x="295" y="183" width="126" height="148" fill="#d9f0d3" stroke="none" stroke-width="0" opacity="1"/>
		<rect x="295" y="153" width="126" height="178" fill="none" stroke="#5aae61" stroke-width="1.5" opacity="1"/>
		<line x1="295" y1="183" x2="421" y2="183" stroke="#5aae61" stroke-width="1.5"/>
	</g>
	<text x="314" y="174.3" fill="#000000" font-family="Copperplate" font-size="18">Personne</text>
	<text x="303" y="200" fill="#000000" font-family="Gill Sans" font-size="15">email</text>
	<text x="303" y="217.1" fill="#000000" font-family="Gill Sans" font-size="15">nom de famille</text>
	<text x="303" y="234.1" fill="#000000" font-family="Gill Sans" font-size="15">prénom</text>
	<text x="303" y="251.1" fill="#000000" font-family="Gill Sans" font-size="15">date de naissance</text>
	<text x="303" y="268.1" fill="#000000" font-family="Gill Sans" font-size="15">téléphone</text>
	<text x="303" y="285" fill="#000000" font-family="Gill Sans" font-size="15">addresse</text>
	<text x="303" y="302" fill="#000000" font-family="Gill Sans" font-size="15">code postal</text>
	<text x="303" y="319" fill="#000000" font-family="Gill Sans" font-size="15">métier</text>
</g>

<!-- Entity ORGANISATION -->
<g>
	<g>
		<rect x="617" y="212" width="140" height="30" fill="#a6dba0" stroke="none" stroke-width="0" opacity="1"/>
		<rect x="617" y="242" width="140" height="30" fill="#d9f0d3" stroke="none" stroke-width="0" opacity="1"/>
		<rect x="617" y="212" width="140" height="60" fill="none" stroke="#5aae61" stroke-width="1.5" opacity="1"/>
		<line x1="617" y1="242" x2="757" y2="242" stroke="#5aae61" stroke-width="1.5"/>
	</g>
	<text x="626" y="233.3" fill="#000000" font-family="Copperplate" font-size="18">Organisation</text>
	<text x="625" y="259.1" fill="#000000" font-family="Gill Sans" font-size="15">nom</text>
	<line x1="625" y1="262" x2="654" y2="262" stroke="#000000" stroke-width="1"/>
</g>

<!-- Entity PAYS -->
<g>
	<g>
		<rect x="1061" y="212" width="60" height="30" fill="#a6dba0" stroke="none" stroke-width="0" opacity="1"/>
		<rect x="1061" y="242" width="60" height="30" fill="#d9f0d3" stroke="none" stroke-width="0" opacity="1"/>
		<rect x="1061" y="212" width="60" height="60" fill="none" stroke="#5aae61" stroke-width="1.5" opacity="1"/>
		<line x1="1061" y1="242" x2="1121" y2="242" stroke="#5aae61" stroke-width="1.5"/>
	</g>
	<text x="1070" y="233.3" fill="#000000" font-family="Copperplate" font-size="18">Pays</text>
	<text x="1069" y="259.1" fill="#000000" font-family="Gill Sans" font-size="15">nom</text>
	<line x1="1069" y1="262" x2="1098" y2="262" stroke="#000000" stroke-width="1"/>
</g>

<!-- Entity RESOURCE -->
<g>
	<g>
		<rect x="18" y="365" width="104" height="30" fill="#a6dba0" stroke="none" stroke-width="0" opacity="1"/>
		<rect x="18" y="395" width="104" height="46" fill="#d9f0d3" stroke="none" stroke-width="0" opacity="1"/>
		<rect x="18" y="365" width="104" height="76" fill="none" stroke="#5aae61" stroke-width="1.5" opacity="1"/>
		<line x1="18" y1="395" x2="122" y2="395" stroke="#5aae61" stroke-width="1.5"/>
	</g>
	<text x="26" y="386.3" fill="#000000" font-family="Copperplate" font-size="18">Resource</text>
	<text x="26" y="412.1" fill="#000000" font-family="Gill Sans" font-size="15">name</text>
	<line x1="26" y1="415" x2="60" y2="415" stroke="#000000" stroke-width="1"/>
	<text x="26" y="429.1" fill="#000000" font-family="Gill Sans" font-size="15">type</text>
</g>

<!-- Entity USER -->
<g>
	<g>
		<rect x="308" y="365" width="100" height="30" fill="#a6dba0" stroke="none" stroke-width="0" opacity="1"/>
		<rect x="308" y="395" width="100" height="46" fill="#d9f0d3" stroke="none" stroke-width="0" opacity="1"/>
		<rect x="308" y="365" width="100" height="76" fill="none" stroke="#5aae61" stroke-width="1.5" opacity="1"/>
		<line x1="308" y1="395" x2="408" y2="395" stroke="#5aae61" stroke-width="1.5"/>
	</g>
	<text x="336" y="386.3" fill="#000000" font-family="Copperplate" font-size="18">User</text>
	<text x="316" y="412.1" fill="#000000" font-family="Gill Sans" font-size="15">email</text>
	<text x="316" y="429.1" fill="#000000" font-family="Gill Sans" font-size="15">mot de passe</text>
</g>

<!-- Entity CLIENT -->
<g>
	<g>
		<rect x="641" y="365" width="92" height="30" fill="#a6dba0" stroke="none" stroke-width="0" opacity="1"/>
		<rect x="641" y="395" width="92" height="46" fill="#d9f0d3" stroke="none" stroke-width="0" opacity="1"/>
		<rect x="641" y="365" width="92" height="76" fill="none" stroke="#5aae61" stroke-width="1.5" opacity="1"/>
		<line x1="641" y1="395" x2="733" y2="395" stroke="#5aae61" stroke-width="1.5"/>
	</g>
	<text x="657" y="386.3" fill="#000000" font-family="Copperplate" font-size="18">Client</text>
	<text x="649" y="412.1" fill="#000000" font-family="Gill Sans" font-size="15">name</text>
	<text x="649" y="429.1" fill="#000000" font-family="Gill Sans" font-size="15">redirect_uri</text>
</g>

<!-- Entity DATABASE -->
<g>
	<g>
		<rect x="20" y="475" width="100" height="30" fill="#a6dba0" stroke="none" stroke-width="0" opacity="1"/>
		<rect x="20" y="505" width="100" height="46" fill="#d9f0d3" stroke="none" stroke-width="0" opacity="1"/>
		<rect x="20" y="475" width="100" height="76" fill="none" stroke="#5aae61" stroke-width="1.5" opacity="1"/>
		<line x1="20" y1="505" x2="120" y2="505" stroke="#5aae61" stroke-width="1.5"/>
	</g>
	<text x="28" y="496.3" fill="#000000" font-family="Copperplate" font-size="18">Database</text>
	<text x="28" y="522.1" fill="#000000" font-family="Gill Sans" font-size="15">name</text>
	<line x1="28" y1="525" x2="62" y2="525" stroke="#000000" stroke-width="1"/>
</g>

<!-- Entity REFRESH_TOKEN -->
<g>
	<g>
		<rect x="282" y="668" width="152" height="30" fill="#a6dba0" stroke="none" stroke-width="0" opacity="1"/>
		<rect x="282" y="698" width="152" height="98" fill="#d9f0d3" stroke="none" stroke-width="0" opacity="1"/>
		<rect x="282" y="668" width="152" height="128" fill="none" stroke="#5aae61" stroke-width="1.5" opacity="1"/>
		<line x1="282" y1="698" x2="434" y2="698" stroke="#5aae61" stroke-width="1.5"/>
	</g>
	<text x="290" y="689.3" fill="#000000" font-family="Copperplate" font-size="18">Refresh Token</text>
	<text x="290" y="715.1" fill="#000000" font-family="Gill Sans" font-size="15">token</text>
	<line x1="290" y1="718" x2="327" y2="718" stroke="#000000" stroke-width="1"/>
	<text x="290" y="732.1" fill="#000000" font-family="Gill Sans" font-size="15">client id</text>
	<text x="290" y="749.1" fill="#000000" font-family="Gill Sans" font-size="15">user id</text>
	<text x="290" y="766" fill="#000000" font-family="Gill Sans" font-size="15">expires at</text>
	<text x="290" y="783" fill="#000000" font-family="Gill Sans" font-size="15">revoked at</text>
</g>

<!-- Entity ROLE -->
<g>
	<g>
		<rect x="327" y="830" width="62" height="30" fill="#a6dba0" stroke="none" stroke-width="0" opacity="1"/>
		<rect x="327" y="860" width="62" height="30" fill="#d9f0d3" stroke="none" stroke-width="0" opacity="1"/>
		<rect x="327" y="830" width="62" height="60" fill="none" stroke="#5aae61" stroke-width="1.5" opacity="1"/>
		<line x1="327" y1="860" x2="389" y2="860" stroke="#5aae61" stroke-width="1.5"/>
	</g>
	<text x="336" y="851.3" fill="#000000" font-family="Copperplate" font-size="18">Role</text>
	<text x="335" y="877.1" fill="#000000" font-family="Gill Sans" font-size="15">name</text>
	<line x1="335" y1="880" x2="369" y2="880" stroke="#000000" stroke-width="1"/>
</g>

<!-- Entity PERMISSION -->
<g>
	<g>
		<rect x="628" y="830" width="118" height="30" fill="#a6dba0" stroke="none" stroke-width="0" opacity="1"/>
		<rect x="628" y="860" width="118" height="30" fill="#d9f0d3" stroke="none" stroke-width="0" opacity="1"/>
		<rect x="628" y="830" width="118" height="60" fill="none" stroke="#5aae61" stroke-width="1.5" opacity="1"/>
		<line x1="628" y1="860" x2="746" y2="860" stroke="#5aae61" stroke-width="1.5"/>
	</g>
	<text x="636" y="851.3" fill="#000000" font-family="Copperplate" font-size="18">Permission</text>
	<text x="636" y="877.1" fill="#000000" font-family="Gill Sans" font-size="15">name</text>
	<line x1="636" y1="880" x2="670" y2="880" stroke="#000000" stroke-width="1"/>
</g>
</svg>